<?xml version="1.0" encoding="utf-8"?>
<!-- Generator: Adobe Illustrator 23.0.2, SVG Export Plug-In . SVG Version: 6.00 Build 0)  -->
<svg version="1.1" xmlns="http://www.w3.org/2000/svg" xmlns:xlink="http://www.w3.org/1999/xlink" x="0px" y="0px"
	 viewBox="0 0 174.8 156.3" style="enable-background:new 0 0 174.8 156.3;" xml:space="preserve">
<style type="text/css">
	.st0{display:none;}
	.st1{opacity:5.000000e-02;}
	.st2{fill:none;stroke:#EC008C;stroke-miterlimit:10;}
	.st3{stroke:#000000;stroke-width:1.0837;stroke-miterlimit:10;}
	.st4{stroke:#000000;stroke-width:0.5;stroke-miterlimit:10;}
	.st5{stroke:#000000;stroke-width:0.25;stroke-miterlimit:10;}
	.st6{stroke:#000000;stroke-width:1.1811;stroke-miterlimit:10;}
	.st7{fill:none;stroke:#000000;stroke-width:5;stroke-miterlimit:10;}
	.st8{clip-path:url(#SVGID_2_);}
	.st9{stroke:#000000;stroke-width:0.3176;stroke-miterlimit:10;}
	.st10{clip-path:url(#SVGID_4_);}
	.st11{fill:none;stroke:#000000;stroke-width:3.7732;stroke-miterlimit:10;}
	.st12{fill:#FBAD2F;}
	.st13{fill:#760024;}
	.st14{fill:#FFFFFF;}
	.st15{stroke:#000000;stroke-width:0.2925;stroke-miterlimit:10;}
	.st16{stroke:#000000;stroke-width:0.3563;stroke-miterlimit:10;}
	.st17{stroke:#000000;stroke-width:0.2898;stroke-miterlimit:10;}
	.st18{stroke:#000000;stroke-width:0.311;stroke-miterlimit:10;}
	.st19{stroke:#000000;stroke-width:0.3957;stroke-miterlimit:10;}
	.st20{fill:#F15744;}
	.st21{fill:#00293C;}
	.st22{fill:#009CDF;}
	.st23{fill:#00A99D;}
	.st24{fill:#EAEAEA;}
	.st25{fill:#302E29;}
	.st26{fill:#494F69;}
	.st27{fill:#BAAD69;}
	.st28{fill:#A5674E;}
	.st29{fill:#1B222A;}
	.st30{fill:#496AB2;}
	.st31{stroke:#000000;stroke-width:0.2787;stroke-miterlimit:10;}
	.st32{fill:none;stroke:#000000;stroke-width:3;stroke-miterlimit:10;}
	.st33{fill:none;stroke:#000000;stroke-width:4;stroke-miterlimit:10;}
	.st34{stroke:#000000;stroke-width:0.5625;stroke-miterlimit:10;}
	.st35{stroke:#000000;stroke-width:0.3078;stroke-miterlimit:10;}
	.st36{stroke:#000000;stroke-width:0.4748;stroke-miterlimit:10;}
</style>
<g id="Layer_3" class="st0">
</g>
<g id="Layer_1">
</g>
<g id="Layer_2">
	<g>
		<g>
			<path d="M95.7,46c0.6,0,0.8,0.1,1.3,0.6c0.5,0.5,0.6,0.9,1,1.3c0.3,0.4,1,0.8,2.2,1.2c-0.9-0.8-1.1-1.3-1.3-2.2
				c0,0-0.2-1.6-0.7-2.2c-0.5-0.6-0.9-0.7-1.6-0.7c-0.8,0-1.7,0.2-1.9,0.5c-0.2,0.3-0.4,0.5-0.2,0.8C94.8,45.5,95,45.9,95.7,46z"/>
			<path d="M76.3,51.8c0.9,5.4,3.8,7.6,8.2,8.9c6.4,1.9,14.5-0.2,14.5-0.2c-18.7,1.1-18.5-5.5-17.5-8.2c0.5-1.4,1-2,1.5-4
				c0.5-1.9-0.4-4.5-3-4.7C76.8,43.2,75.7,47.9,76.3,51.8z"/>
			<path d="M66.7,55C66.4,39.7,81,30.2,81,30.2s-9.6,3.3-14.4,13.8c1.2-4.7,2.5-7.9,2.5-7.9s-0.3,0.3-0.7,1
				c-0.5,0.6-1.1,1.6-1.7,2.8c-0.7,1.2-1.9,4-2.6,7.2c0,0-0.8,2.8-0.7,8.9c-0.4-1.7-0.6-2.3-0.8-5.3c-0.1-2.4-0.1-4.3-0.1-4.3
				s-0.8,1.5-1.1,4.2c-0.3,3.4,0.2,6.8,2,11.3c2.7,7,7.8,10.1,7.8,10.1S66.9,67.3,66.7,55z"/>
			<path d="M119.9,62.7c0.1,0-1.6-1.6-3.6-0.5c-0.7,0.4-1,0.9-0.9,1.7c0.1,0.9,0.8,1.7,1.7,1.9c0.9,0.1,2.1,0.1,2.4-1
				c0.1-0.8-0.6-1.4-1.9-1.2c-0.7,0.1-1-0.1-1-0.4C116.6,62.8,117.6,61.9,119.9,62.7z"/>
			<path d="M105.6,79c-1.2-1.8-2.7-3.9-4.9-6c-2.2-2-5.1-3.8-8.4-4.9c-1.6-0.5-3.2-0.9-4.8-1.2c-0.7-0.1-1.5-0.3-2.2-0.4
				c-0.7-0.1-1.4-0.3-2-0.4c-2.6-0.6-4.8-1.6-6.6-2.6c-1.7-1.1-2.9-2.3-3.7-3.2c-0.7-0.9-1-1.5-1-1.5s0.1,0.7,0.5,1.8
				c0.5,1.1,1.4,2.7,3.1,4.3c1.6,1.6,4,3,6.7,4.1c0.7,0.3,1.4,0.5,2.2,0.7c0.4,0.1,0.7,0.2,1.1,0.3c0.4,0.1,0.7,0.2,1.1,0.3
				c1.5,0.4,2.9,0.8,4.4,1.3c0.9,0.3,1.8,0.7,2.7,1c-0.4,0-0.7-0.1-1.1-0.1c-0.7,0-1.2,0-1.8,0c-4.6,0-8.7,0-11.4-0.9
				c-1.4-0.4-2.5-1-3.1-1.5c-0.4-0.2-0.6-0.5-0.8-0.6c-0.2-0.1-0.3-0.2-0.3-0.2s0.1,0.1,0.2,0.3c0.1,0.2,0.3,0.5,0.6,0.8
				c0.5,0.7,1.4,1.5,2.8,2.4l1,0.6c2.2,1.4,5.5,2.9,9.2,3.9c1,0.3,1.8,0.5,2.6,0.8c0.8,0.3,1.6,0.6,2.3,1c1.4,0.7,2.6,1.5,3.6,2.3
				c1.9,1.6,2.7,2.8,2.7,2.7c-0.1,0-0.5-1.3-2.1-3.3c-0.8-1-2-2.1-3.5-3c-0.7-0.5-1.6-0.9-2.4-1.3c-0.9-0.4-1.9-0.6-2.7-0.9
				c-0.8-0.2-1.5-0.4-2.3-0.6c1.2,0.1,2.4,0.1,3.6,0.1c0.6,0,1.2,0,1.7,0c0.5,0,1,0,1.5,0.1c0.2,0,0.5,0.1,0.7,0.1
				c0.2,0.1,0.5,0.1,0.7,0.2c0.5,0.1,0.9,0.2,1.4,0.4c1.8,0.6,3.3,1.4,4.5,2.2c1.2,0.8,2.2,1.6,2.8,2.2c0.1,0.1,0.2,0.2,0.3,0.3
				c1.3,1.3,2.4,2.5,3.1,3.3c0.8,0.9,1.3,1.4,1.3,1.4s-0.3-0.6-0.8-1.7C107.6,82.4,106.8,80.8,105.6,79z"/>
			<path d="M124.4,62.6c0,0-0.4-0.8-0.3-1.9c0-0.3-0.1-0.9-1.2-1.7c0,0-2.4-1.8-3.3-2.5c-0.9-0.7-1.5-1.7-2.4-2.8
				c-0.9-1.1-1.3-1.4-1.8-2c-0.5-0.6-3.5-4.1-4.4-4.9c-0.9-0.8-0.7-1.5-0.6-2.1c0.1-0.7,0.4-1.1,0.1-2.1c-0.3-1-0.9-1.6-2.1-2.4
				c-1.9-1.3-3.2-2.1-4.8-3.3c-2.2-1.6-2.9-3.8-4.3-4.9c-0.6-0.5-0.9-0.5-0.9,0c-0.1,0.7-1.5,2.1-3.2,2c-1.1,0-2.3,0-3.8-0.2
				c-2-0.4-2.5,0.5-2.8,0.9c-0.3,0.5-0.7,2.4,1.1,5.1c1.7,2.6,3.9,2.6,5.5,2.5c1.5-0.1,2.6-0.2,4.3,0.7c1.6,0.9,2.2,2.3,2.4,3.3
				c0.2,1,0.4,1.5,1,2c0.7,0.5,1.8,0.1,3.4,0.6c1.6,0.6,1.5,1,3.6,2.3c2.1,1.3,4.5,4.3,5.3,5.2c0.8,0.9,2.6,2,2.9,2.3
				c0.3,0.3,1.4,0.9-0.8,1.3c-2.2,0.4-2.3,1-2.3,1s2.4-0.9,4.7-0.1c2,0.7,2.3,1.7,2.5,2.5c0.2,0.8,0.3,2.9-2.1,3.3
				c0.9,0.3,1.4,0,2.1-0.1c1-0.2,0.8-0.7,1.6-1.6C125.1,63.7,124.5,62.8,124.4,62.6z"/>
			<path d="M106.9,66.2c-1-1.1-2.1-2.2-3.4-2.8c-1.2-0.7-2.4-1-3.4-1.1c-1-0.1-1.8-0.1-2.4,0c-0.6,0.1-0.8,0.2-0.8,0.2s1.3,0,3,0.6
				c0.9,0.3,1.9,0.8,2.8,1.5c1,0.7,1.9,1.7,2.8,2.8c1,1.1,2.1,2.2,3.4,2.8c1.3,0.6,2.6,0.8,3.6,0.7c0.5,0,1-0.1,1.4-0.2
				c0.4-0.1,0.7-0.1,1-0.2c0.5-0.2,0.8-0.2,0.8-0.2C115.9,70.1,110.3,71.2,106.9,66.2z"/>
			<path d="M99.4,24.7c0,0-4.2,0.3-5.8,3c-1.6,2.7-2.7,3.1-2.7,3.1s2.3,1.9,5,0c0,0,1.3-0.8,1.6-3C97.5,27.8,97.8,25.9,99.4,24.7z"
				/>
			<path d="M92.9,24c0,0-2.7,1.3-3.7,4c-0.5,1.3-0.7,1.8-2.1,2.4s-2.2,0.3-3.4,2.7c0,0-2-2,0.7-5.5C87.2,24,92,24,92.9,24z"/>
		</g>
		<g>
			<g>
				<path d="M54.2,132l2.5-7.1h0.9L60,132v0.4h-0.6l-0.6-1.9h-3.2l-0.6,1.9h-0.6V132z M58.5,129.7l-1.4-4.1l-1.4,4.1H58.5z"/>
				<path d="M63.3,124.9h0.8l3.7,6.2h0.1v-6.2h0.7v7.5h-0.8l-3.7-6.2H64v6.2h-0.7V124.9z"/>
				<path d="M71.9,132l2.5-7.1h0.9l2.5,7.1v0.4H77l-0.6-1.9h-3.2l-0.6,1.9h-0.6V132z M76.2,129.7l-1.4-4.1l-1.4,4.1H76.2z"/>
				<path d="M81,124.9h0.7v6.8h3.7v0.7H81V124.9z"/>
				<path d="M89.4,129.7l-2.2-4.5v-0.4h0.6l2,4.1h0.1l2-4.1h0.6v0.4l-2.2,4.5v2.6h-0.7V129.7z"/>
				<path d="M97,125.6h-2.2v-0.7h5.2v0.5l-0.2,0.2h-2v6.8H97V125.6z"/>
				<path d="M103.2,124.9h0.7v7.5h-0.7V124.9z"/>
				<path d="M107.9,126.5c0-1,0.6-1.6,1.6-1.6h3.1v0.5l-0.2,0.2h-2.8c-0.6,0-1,0.3-1,1v4.2c0,0.6,0.3,1,1,1h3v0.7h-3.1
					c-1,0-1.6-0.6-1.6-1.6V126.5z"/>
				<path d="M115.7,131.7h3.2c0.6,0,1-0.3,1-1V130c0-0.5-0.3-0.8-1-1l-1.8-0.4c-0.9-0.2-1.4-0.7-1.4-1.6v-0.6c0-1,0.6-1.6,1.6-1.6h3
					v0.5l-0.2,0.2h-2.8c-0.6,0-1,0.3-1,1v0.5c0,0.5,0.3,0.8,1,1l1.8,0.4c0.9,0.2,1.4,0.7,1.4,1.6v0.8c0,1-0.6,1.6-1.6,1.6h-3.3
					V131.7z"/>
			</g>
		</g>
		<g>
			<path d="M14.8,95.9h10.9c2.5,0,4.1,1.6,4.1,4.1v11c0,2.5-1.6,4.1-4.1,4.1H14.8V95.9z M23.8,110.6c0.7,0,1.1-0.4,1.1-1.1v-8
				c0-0.7-0.4-1.1-1.1-1.1h-4v10.2H23.8z"/>
			<path d="M29.9,112.8l5.2-16.9h6.3l5.2,16.9v2.3h-5l-0.7-3.3h-5.5l-0.7,3.3h-5V112.8z M40.1,107.6l-1.7-7.3h-0.3l-1.7,7.3H40.1z"
				/>
			<path d="M47.6,95.9h10.7c2.5,0,4.1,1.6,4.1,4.1v4.4c0,1.4-0.6,2.2-1.2,2.8c-0.4,0.3-0.8,0.5-1.2,0.7l3,4.8v2.5h-5l-2.9-6.6h-2.6
				v6.6h-5V95.9z M56.4,104c0.7,0,1.1-0.4,1.1-1.1v-1.3c0-0.7-0.4-1.1-1.1-1.1h-3.9v3.6H56.4z"/>
			<path d="M64.3,95.9h5v7.2h2.3l3.4-7.2h4.4v2.5l-3.4,6.6l3.7,7.7v2.5h-4.7l-3.4-7.3h-2.3v7.3h-5V95.9z"/>
			<path d="M80.8,95.9h5v7.3H91v-7.3h5v19.3h-5v-7.3h-5.2v7.3h-5V95.9z"/>
			<path d="M97.9,99.7c0-2.5,1.6-4.1,4.1-4.1h7c2.5,0,4.1,1.6,4.1,4.1v11.6c0,2.5-1.6,4.1-4.1,4.1h-7c-2.5,0-4.1-1.6-4.1-4.1V99.7z
				 M107.1,110.9c0.7,0,1.1-0.4,1.1-1.1v-8.5c0-0.7-0.4-1.1-1.1-1.1H104c-0.7,0-1.1,0.4-1.1,1.1v8.5c0,0.7,0.4,1.1,1.1,1.1H107.1z"
				/>
			<path d="M115.1,95.9h10.7c2.5,0,4.1,1.6,4.1,4.1v4.4c0,1.4-0.6,2.2-1.2,2.8c-0.4,0.3-0.8,0.5-1.2,0.7l3,4.8v2.5h-5l-2.9-6.6h-2.6
				v6.6h-5V95.9z M123.9,104c0.7,0,1.1-0.4,1.1-1.1v-1.3c0-0.7-0.4-1.1-1.1-1.1h-3.9v3.6H123.9z"/>
			<path d="M131.2,110.6h8.4c0.7,0,1.1-0.4,1.1-1.1v-0.4c0-0.7-0.3-1-0.8-1.1l-5-1c-2.1-0.4-3.7-2-3.7-4.3V100
				c0-2.5,1.6-4.1,4.1-4.1h9.8v3l-1.5,1.5h-6.3c-0.7,0-1.1,0.4-1.1,1v0.3c0,0.7,0.3,1,0.8,1.1l5,1c2.1,0.4,3.7,2,3.7,4.3v3
				c0,2.5-1.7,4.1-4.2,4.1h-10.2V110.6z"/>
			<path d="M147,95.9h12.9v3l-1.5,1.5H152v2.9h5.2v4.4H152v2.9h8v4.5H147V95.9z"/>
		</g>
	</g>
</g>
</svg>
