<svg xmlns="http://www.w3.org/2000/svg" viewBox="0 0 403.78 94.85"><defs><style>.cls-1{fill:#d02120;}.cls-2{fill:#fff;}</style></defs><title>Asset 1</title><g id="Layer_2" data-name="Layer 2"><g id="Layer_1-2" data-name="Layer 1"><path class="cls-1" d="M403.78,94.85H0V0H403.78ZM266.29,4.34H4V91.05H266.29ZM43.11,72.25h5V49H74.88V72.25h5V23.14h-5V44.43H48.1V23.14h-5Zm85.61,0h5.54L113.18,23.14h-4.86L87.09,72.25h5.48l18-43.57Zm49-10.47a15.25,15.25,0,0,1-6.39,5.54,19.13,19.13,0,0,1-8,1.74,20.32,20.32,0,0,1-8.51-1.73,19.44,19.44,0,0,1-6.41-4.66,20.87,20.87,0,0,1-4.06-6.81,23.48,23.48,0,0,1-1.42-8.17,24.05,24.05,0,0,1,1.38-8.15,20.6,20.6,0,0,1,4-6.82,19.28,19.28,0,0,1,6.42-4.66,20.25,20.25,0,0,1,8.57-1.73,16.78,16.78,0,0,1,4.4.55,18.91,18.91,0,0,1,3.78,1.46,14.12,14.12,0,0,1,3,2.08,12.26,12.26,0,0,1,2,2.36l4.17-3.06a14.25,14.25,0,0,0-3.13-3.23A21,21,0,0,0,173.39,24a25.68,25.68,0,0,0-4.89-1.58,25.37,25.37,0,0,0-5.3-.56A26.17,26.17,0,0,0,153,23.83a24.46,24.46,0,0,0-13.49,13.52,26.85,26.85,0,0,0-1.94,10.34A27.38,27.38,0,0,0,139.5,58a24.37,24.37,0,0,0,5.31,8.15,24.11,24.11,0,0,0,8.12,5.38A26.83,26.83,0,0,0,163.2,73.5a24.26,24.26,0,0,0,6.14-.74,22.46,22.46,0,0,0,5.13-2,19.84,19.84,0,0,0,4.09-2.93,20.64,20.64,0,0,0,3-3.54Zm17.48-38.64h-5V72.25h5V46.1h.06L219.8,72.25h7.35L201,45.41l24.77-22.27h-7.15L195.24,45.2h-.06Z"/><path class="cls-2" d="M298.41,67.63H324.7v4.43H293.41V23h30.45v4.43H298.41V44.25h23.8v4.43h-23.8Z"/><path class="cls-2" d="M334.48,23h16.31A29.35,29.35,0,0,1,360,24.47a25.42,25.42,0,0,1,8.33,4.62,23.26,23.26,0,0,1,6,7.69,23.87,23.87,0,0,1,2.3,10.73,23.75,23.75,0,0,1-2.3,10.75,23.35,23.35,0,0,1-6,7.66A25.42,25.42,0,0,1,360,70.54a29.06,29.06,0,0,1-9.19,1.52H334.48Zm5,44.68h9.92a25,25,0,0,0,9.68-1.74,20.13,20.13,0,0,0,6.83-4.55A18.49,18.49,0,0,0,370,54.93a21.09,21.09,0,0,0,0-14.85,18.58,18.58,0,0,0-4.06-6.41,20.27,20.27,0,0,0-6.83-4.55,25,25,0,0,0-9.68-1.74h-9.92Z"/></g></g></svg>